<svg xmlns="http://www.w3.org/2000/svg" viewBox="0 0 180 180"><defs><style>.e{fill:#90f8f4}</style></defs><g id="b"><g id="c"><path fill="none" d="M0 0h180v180H0z"/><rect width="180" height="180" rx="37.6" ry="37.6" fill="#396ef3"/><circle class="e" cx="33.23" cy="71.91" r="24.58"/><circle class="e" cx="146.77" cy="71.91" r="24.58"/><path class="e" d="M90 147.13h-.11c-21.04-.04-40.86-11.07-55.79-31.06a5.479 5.479 0 011.11-7.68 5.48 5.48 0 017.68 1.11c12.82 17.16 29.52 26.63 47.02 26.66H90c17.44 0 34.09-9.37 46.91-26.4 1.82-2.42 5.35-3.05 7.78-1.23 2.42 1.82 3.01 5.12 1.19 7.54-15.16 20.13-34.93 31.06-55.89 31.06z"/></g></g></svg>