<svg width="123" height="23" fill="none" xmlns="http://www.w3.org/2000/svg"><mask id="a" style="mask-type:alpha" maskUnits="userSpaceOnUse" x="0" y="0" width="11" height="14"><path fill-rule="evenodd" clip-rule="evenodd" d="M.52.868v12.531h3.02V3.812h3.881v9.587h3.022V.868H.519z" fill="#fff"/></mask><g mask="url(#a)"><path fill-rule="evenodd" clip-rule="evenodd" d="M.52.868v12.531h3.02V3.812h3.881v9.587h3.022V.868H.519z" fill="url(#paint0_linear_21_374)"/></g><mask id="b" style="mask-type:alpha" maskUnits="userSpaceOnUse" x="14" y="0" width="10" height="14"><path fill-rule="evenodd" clip-rule="evenodd" d="M14.047.868V13.4h3.02V9.507h1.529c.631 0 1.223-.104 1.774-.313a4.165 4.165 0 001.422-.884c.398-.378.712-.834.94-1.366.228-.53.343-1.119.343-1.765a4.55 4.55 0 00-.343-1.795 3.873 3.873 0 00-.94-1.357 4.211 4.211 0 00-1.422-.854 5.087 5.087 0 00-1.774-.305h-4.55zm3.02 2.848h1.547c.42 0 .757.133 1.01.4.25.266.377.62.377 1.063 0 .444-.127.8-.378 1.072-.252.273-.588.408-1.01.408h-1.545V3.716z" fill="#fff"/></mask><g mask="url(#b)"><path fill-rule="evenodd" clip-rule="evenodd" d="M14.047.868V13.4h3.02V9.507h1.529c.631 0 1.223-.104 1.774-.313a4.165 4.165 0 001.422-.884c.398-.378.712-.834.94-1.366.228-.53.343-1.119.343-1.765a4.55 4.55 0 00-.343-1.795 3.873 3.873 0 00-.94-1.357 4.211 4.211 0 00-1.422-.854 5.087 5.087 0 00-1.774-.305h-4.55zm3.02 2.848h1.547c.42 0 .757.133 1.01.4.25.266.377.62.377 1.063 0 .444-.127.8-.378 1.072-.252.273-.588.408-1.01.408h-1.545V3.716z" fill="url(#paint1_linear_21_374)"/></g><mask id="c" style="mask-type:alpha" maskUnits="userSpaceOnUse" x="24" y="0" width="14" height="14"><path fill-rule="evenodd" clip-rule="evenodd" d="M28.598 1.022a6.093 6.093 0 00-1.976 1.365 6.53 6.53 0 00-1.334 2.06 6.654 6.654 0 00-.493 2.573c0 .924.164 1.781.492 2.573a6.506 6.506 0 001.335 2.06 6.128 6.128 0 001.976 1.368 6.035 6.035 0 002.433.492c.866 0 1.68-.164 2.441-.492a6.214 6.214 0 001.994-1.369 6.469 6.469 0 001.344-2.06 6.68 6.68 0 00.49-2.572 6.68 6.68 0 00-.49-2.573 6.492 6.492 0 00-1.344-2.06A6.177 6.177 0 0031.03.527c-.867 0-1.678.165-2.433.495zm1.168 9.245a2.89 2.89 0 01-1.001-.703 3.128 3.128 0 01-.65-1.1 4.316 4.316 0 01-.229-1.444c0-.518.077-.994.229-1.424.151-.43.369-.797.65-1.1a2.996 2.996 0 011.001-.713 3.135 3.135 0 011.282-.257c.445 0 .86.086 1.247.257.387.17.72.408 1.001.713.282.303.504.67.668 1.1.163.43.246.906.246 1.424a4.04 4.04 0 01-.246 1.443c-.164.43-.386.798-.668 1.1a2.86 2.86 0 01-1 .704 3.164 3.164 0 01-1.248.247c-.468 0-.895-.083-1.282-.247z" fill="#fff"/></mask><g mask="url(#c)"><path fill-rule="evenodd" clip-rule="evenodd" d="M28.598 1.022a6.093 6.093 0 00-1.976 1.365 6.53 6.53 0 00-1.334 2.06 6.654 6.654 0 00-.493 2.573c0 .924.164 1.781.492 2.573a6.506 6.506 0 001.335 2.06 6.128 6.128 0 001.976 1.368 6.035 6.035 0 002.433.492c.866 0 1.68-.164 2.441-.492a6.214 6.214 0 001.994-1.369 6.469 6.469 0 001.344-2.06 6.68 6.68 0 00.49-2.572 6.68 6.68 0 00-.49-2.573 6.492 6.492 0 00-1.344-2.06A6.177 6.177 0 0031.03.527c-.867 0-1.678.165-2.433.495zm1.168 9.245a2.89 2.89 0 01-1.001-.703 3.128 3.128 0 01-.65-1.1 4.316 4.316 0 01-.229-1.444c0-.518.077-.994.229-1.424.151-.43.369-.797.65-1.1a2.996 2.996 0 011.001-.713 3.135 3.135 0 011.282-.257c.445 0 .86.086 1.247.257.387.17.72.408 1.001.713.282.303.504.67.668 1.1.163.43.246.906.246 1.424a4.04 4.04 0 01-.246 1.443c-.164.43-.386.798-.668 1.1a2.86 2.86 0 01-1 .704 3.164 3.164 0 01-1.248.247c-.468 0-.895-.083-1.282-.247z" fill="url(#paint2_linear_21_374)"/></g><mask id="d" style="mask-type:alpha" maskUnits="userSpaceOnUse" x="39" y="0" width="13" height="14"><path fill-rule="evenodd" clip-rule="evenodd" d="M50.802.641l-4.936 6.513L40.93.641h-.966V13.4h3.02V8.16l2.39 3.019h.965l2.407-3.02V13.4h3.022V.641h-.967z" fill="#fff"/></mask><g mask="url(#d)"><path fill-rule="evenodd" clip-rule="evenodd" d="M50.802.641l-4.936 6.513L40.93.641h-.966V13.4h3.02V8.16l2.39 3.019h.965l2.407-3.02V13.4h3.022V.641h-.967z" fill="url(#paint3_linear_21_374)"/></g><mask id="e" style="mask-type:alpha" maskUnits="userSpaceOnUse" x="54" y="0" width="13" height="14"><path fill-rule="evenodd" clip-rule="evenodd" d="M58.105 1.022a6.11 6.11 0 00-1.976 1.365 6.549 6.549 0 00-1.335 2.06 6.674 6.674 0 00-.491 2.573c0 .924.164 1.781.491 2.573a6.525 6.525 0 001.335 2.06 6.147 6.147 0 001.976 1.368 6.043 6.043 0 002.433.492c.866 0 1.68-.164 2.441-.492a6.21 6.21 0 001.994-1.369 6.456 6.456 0 001.343-2.06 6.649 6.649 0 00.492-2.572c0-.922-.164-1.781-.492-2.573a6.479 6.479 0 00-1.343-2.06 6.173 6.173 0 00-4.435-1.86c-.867 0-1.677.165-2.433.495zm1.168 9.245a2.883 2.883 0 01-1-.703 3.127 3.127 0 01-.65-1.1 4.3 4.3 0 01-.23-1.444c0-.518.076-.994.23-1.424.15-.43.368-.797.65-1.1a2.987 2.987 0 011-.713 3.137 3.137 0 011.283-.257 3.04 3.04 0 012.248.97c.281.303.503.67.667 1.1.164.43.246.906.246 1.424a4.04 4.04 0 01-.246 1.443c-.164.43-.386.798-.667 1.1a2.88 2.88 0 01-1.002.704 3.154 3.154 0 01-1.246.247c-.47 0-.897-.083-1.283-.247z" fill="#fff"/></mask><g mask="url(#e)"><path fill-rule="evenodd" clip-rule="evenodd" d="M58.105 1.022a6.11 6.11 0 00-1.976 1.365 6.549 6.549 0 00-1.335 2.06 6.674 6.674 0 00-.491 2.573c0 .924.164 1.781.491 2.573a6.525 6.525 0 001.335 2.06 6.147 6.147 0 001.976 1.368 6.043 6.043 0 002.433.492c.866 0 1.68-.164 2.441-.492a6.21 6.21 0 001.994-1.369 6.456 6.456 0 001.343-2.06 6.649 6.649 0 00.492-2.572c0-.922-.164-1.781-.492-2.573a6.479 6.479 0 00-1.343-2.06 6.173 6.173 0 00-4.435-1.86c-.867 0-1.677.165-2.433.495zm1.168 9.245a2.883 2.883 0 01-1-.703 3.127 3.127 0 01-.65-1.1 4.3 4.3 0 01-.23-1.444c0-.518.076-.994.23-1.424.15-.43.368-.797.65-1.1a2.987 2.987 0 011-.713 3.137 3.137 0 011.283-.257 3.04 3.04 0 012.248.97c.281.303.503.67.667 1.1.164.43.246.906.246 1.424a4.04 4.04 0 01-.246 1.443c-.164.43-.386.798-.667 1.1a2.88 2.88 0 01-1.002.704 3.154 3.154 0 01-1.246.247c-.47 0-.897-.083-1.283-.247z" fill="url(#paint4_linear_21_374)"/></g><mask id="f" style="mask-type:alpha" maskUnits="userSpaceOnUse" x="59" y="15" width="4" height="4"><path fill-rule="evenodd" clip-rule="evenodd" d="M60.284 15.383c-.16.03-.307.09-.446.17l-.031.018c-.062.037-.12.077-.175.122l-.025.021c-.099.084-.188.18-.266.288-.013.02-.03.037-.043.058-.025.038-.046.08-.068.119-.025.047-.05.092-.07.14a1.587 1.587 0 00-.097.3c-.008.034-.017.064-.023.098-.015.1-.027.2-.027.305 0 .922.69 1.668 1.543 1.668.097 0 .191-.012.282-.03.05-.01.1-.029.148-.043.035-.012.07-.022.105-.035.066-.027.127-.06.187-.094l.036-.021c.16-.098.302-.227.419-.38l.033-.04a1.75 1.75 0 00.332-1.025c0-.921-.69-1.668-1.542-1.668-.094 0-.184.012-.272.029z" fill="#fff"/></mask><g mask="url(#f)"><path fill-rule="evenodd" clip-rule="evenodd" d="M60.284 15.383c-.16.03-.307.09-.446.17l-.031.018c-.062.037-.12.077-.175.122l-.025.021c-.099.084-.188.18-.266.288-.013.02-.03.037-.043.058-.025.038-.046.08-.068.119-.025.047-.05.092-.07.14a1.587 1.587 0 00-.097.3c-.008.034-.017.064-.023.098-.015.1-.027.2-.027.305 0 .922.69 1.668 1.543 1.668.097 0 .191-.012.282-.03.05-.01.1-.029.148-.043.035-.012.07-.022.105-.035.066-.027.127-.06.187-.094l.036-.021c.16-.098.302-.227.419-.38l.033-.04a1.75 1.75 0 00.332-1.025c0-.921-.69-1.668-1.542-1.668-.094 0-.184.012-.272.029z" fill="url(#paint5_linear_21_374)"/></g><mask id="g" style="mask-type:alpha" maskUnits="userSpaceOnUse" x="29" y="15" width="4" height="4"><path fill-rule="evenodd" clip-rule="evenodd" d="M29.496 16.954c0 .104.012.205.029.304.005.033.014.065.021.097.016.064.033.127.054.187.014.038.027.074.042.11.022.051.048.1.074.147.02.039.04.078.064.114.017.025.037.047.055.07.07.097.147.182.234.258l.045.042c.053.041.107.08.163.113.014.01.03.017.044.026a1.435 1.435 0 00.442.17c.09.019.182.03.277.03.852 0 1.543-.747 1.543-1.668a1.81 1.81 0 00-.027-.3l-.012-.066a1.729 1.729 0 00-.077-.268l-.023-.052a1.906 1.906 0 00-.102-.204c-.013-.021-.024-.044-.039-.064a1.669 1.669 0 00-.357-.392c-.02-.015-.039-.033-.06-.048a1.417 1.417 0 00-.216-.125c-.028-.015-.059-.026-.09-.039a1.475 1.475 0 00-.176-.059c-.03-.007-.058-.016-.087-.02a1.335 1.335 0 00-.277-.031c-.852 0-1.544.747-1.544 1.668z" fill="#fff"/></mask><g mask="url(#g)"><path fill-rule="evenodd" clip-rule="evenodd" d="M29.496 16.954c0 .104.012.205.029.304.005.033.014.065.021.097.016.064.033.127.054.187.014.038.027.074.042.11.022.051.048.1.074.147.02.039.04.078.064.114.017.025.037.047.055.07.07.097.147.182.234.258l.045.042c.053.041.107.08.163.113.014.01.03.017.044.026a1.435 1.435 0 00.442.17c.09.019.182.03.277.03.852 0 1.543-.747 1.543-1.668a1.81 1.81 0 00-.027-.3l-.012-.066a1.729 1.729 0 00-.077-.268l-.023-.052a1.906 1.906 0 00-.102-.204c-.013-.021-.024-.044-.039-.064a1.669 1.669 0 00-.357-.392c-.02-.015-.039-.033-.06-.048a1.417 1.417 0 00-.216-.125c-.028-.015-.059-.026-.09-.039a1.475 1.475 0 00-.176-.059c-.03-.007-.058-.016-.087-.02a1.335 1.335 0 00-.277-.031c-.852 0-1.544.747-1.544 1.668z" fill="url(#paint6_linear_21_374)"/></g><mask id="h" style="mask-type:alpha" maskUnits="userSpaceOnUse" x="32" y="17" width="27" height="6"><path fill-rule="evenodd" clip-rule="evenodd" d="M57.011 17.123a1.27 1.27 0 00-.258.079l-.003-.01a26.78 26.78 0 01-3.565 1.315 26.43 26.43 0 01-14.637 0 26.454 26.454 0 01-3.308-1.203 1.522 1.522 0 00-.74-.212c-.852 0-1.543.747-1.543 1.668 0 .648.346 1.205.846 1.48a.96.96 0 00-.012.03 29.192 29.192 0 0012.075 2.61 29.193 29.193 0 0012.03-2.585l.01-.004c.075-.037.148-.081.218-.129.029-.02.055-.044.084-.066.044-.036.087-.074.128-.115.025-.025.05-.049.073-.076.049-.056.094-.115.136-.177l.03-.042c.049-.078.088-.162.124-.247.011-.027.02-.056.03-.084a1.63 1.63 0 00.059-.206 1.773 1.773 0 00.047-.39c0-.92-.69-1.667-1.543-1.667-.096 0-.19.01-.281.031z" fill="#fff"/></mask><g mask="url(#h)"><path fill-rule="evenodd" clip-rule="evenodd" d="M57.011 17.123a1.27 1.27 0 00-.258.079l-.003-.01a26.78 26.78 0 01-3.565 1.315 26.43 26.43 0 01-14.637 0 26.454 26.454 0 01-3.308-1.203 1.522 1.522 0 00-.74-.212c-.852 0-1.543.747-1.543 1.668 0 .648.346 1.205.846 1.48a.96.96 0 00-.012.03 29.192 29.192 0 0012.075 2.61 29.193 29.193 0 0012.03-2.585l.01-.004c.075-.037.148-.081.218-.129.029-.02.055-.044.084-.066.044-.036.087-.074.128-.115.025-.025.05-.049.073-.076.049-.056.094-.115.136-.177l.03-.042c.049-.078.088-.162.124-.247.011-.027.02-.056.03-.084a1.63 1.63 0 00.059-.206 1.773 1.773 0 00.047-.39c0-.92-.69-1.667-1.543-1.667-.096 0-.19.01-.281.031z" fill="url(#paint7_linear_21_374)"/></g><path fill-rule="evenodd" clip-rule="evenodd" d="M79.62 13.4h-3.021V8.386h-4.234V13.4h-3.021V.87h3.021v4.575H76.6V.87h3.02V13.4zM87.366.64l-5.269 12.758h3.25l.421-1.044h4.163l.421 1.044h3.25L88.335.641h-.968zm.492 6.209l1.002 2.885h-2.02l1.018-2.885zm20.376 9.227h-3.022v-2.678h-6.446v2.678h-3.02v-5.62h.877c.387-.316.717-.687.993-1.111.275-.424.503-.921.685-1.49.18-.57.316-1.226.404-1.965.088-.74.132-1.599.132-2.573V.868h7.762v9.588h1.635v5.62zM101.7 3.811c-.023 1.531-.179 2.832-.466 3.901-.287 1.07-.7 1.984-1.238 2.744h3.583V3.812H101.7zM116.196.64a6.17 6.17 0 014.435 1.86 6.445 6.445 0 011.344 2.06c.327.792.492 1.65.492 2.573 0 .924-.165 1.782-.492 2.572a6.434 6.434 0 01-1.344 2.06 6.165 6.165 0 01-4.435 1.861 6.078 6.078 0 01-4.408-1.86 6.513 6.513 0 01-1.335-2.06 6.647 6.647 0 01-.492-2.573c0-.924.164-1.781.492-2.573a6.524 6.524 0 011.335-2.06 6.084 6.084 0 014.408-1.86zm.018 3a3.14 3.14 0 00-1.283.256c-.386.17-.72.408-1 .713a3.12 3.12 0 00-.65 1.1c-.153.43-.228.905-.228 1.424 0 .532.075 1.013.228 1.443.152.43.369.798.65 1.102.28.303.614.538 1 .701.387.166.815.247 1.283.247.445 0 .861-.081 1.247-.247a2.876 2.876 0 001.001-.701 3.37 3.37 0 00.668-1.102 4.05 4.05 0 00.246-1.443c0-.519-.083-.993-.246-1.424a3.343 3.343 0 00-.668-1.1 2.972 2.972 0 00-1.001-.713 3.055 3.055 0 00-1.247-.256z" fill="#151692"/><defs><linearGradient id="paint0_linear_21_374" x1="10.604" y1="12.231" x2="10.604" y2="-.705" gradientUnits="userSpaceOnUse"><stop stop-color="#3ECEE5"/><stop offset="1" stop-color="#0C0C97"/></linearGradient><linearGradient id="paint1_linear_21_374" x1="23.221" y1="12.231" x2="23.221" y2="-.706" gradientUnits="userSpaceOnUse"><stop stop-color="#3ECEE5"/><stop offset="1" stop-color="#0C0C97"/></linearGradient><linearGradient id="paint2_linear_21_374" x1="37.277" y1="12.231" x2="37.277" y2="-.705" gradientUnits="userSpaceOnUse"><stop stop-color="#3ECEE5"/><stop offset="1" stop-color="#0C0C97"/></linearGradient><linearGradient id="paint3_linear_21_374" x1="51.851" y1="12.231" x2="51.851" y2="-.706" gradientUnits="userSpaceOnUse"><stop stop-color="#3ECEE5"/><stop offset="1" stop-color="#0C0C97"/></linearGradient><linearGradient id="paint4_linear_21_374" x1="66.784" y1="12.231" x2="66.784" y2="-.705" gradientUnits="userSpaceOnUse"><stop stop-color="#3ECEE5"/><stop offset="1" stop-color="#0C0C97"/></linearGradient><linearGradient id="paint5_linear_21_374" x1="31.325" y1="32.861" x2="60.62" y2="32.861" gradientUnits="userSpaceOnUse"><stop stop-color="#3ECEE5"/><stop offset="1" stop-color="#0C0C97"/></linearGradient><linearGradient id="paint6_linear_21_374" x1="31.326" y1="32.784" x2="60.62" y2="32.784" gradientUnits="userSpaceOnUse"><stop stop-color="#3ECEE5"/><stop offset="1" stop-color="#0C0C97"/></linearGradient><linearGradient id="paint7_linear_21_374" x1="31.325" y1="23.262" x2="60.62" y2="23.262" gradientUnits="userSpaceOnUse"><stop stop-color="#3ECEE5"/><stop offset="1" stop-color="#0C0C97"/></linearGradient></defs></svg>