<svg width="853" height="475" fill="none" xmlns="http://www.w3.org/2000/svg"><path fill-rule="evenodd" clip-rule="evenodd" d="M178.081 30.046C116.015 44.922 16.241 140.8 16.394 292.24c.154 180.708 198.165 459.132 523.844 458.853 274.842-.216 342.43-186.581 342.299-312.155-.242-278.564-175.398-473.953-403.18-473.739-124.33.108-235.312 88.822-235.181 219.698.11 121.885 94.406 304.357 318.456 304.174 105.427-.086 167.45-74 167.384-158.702-.088-83.099-77.38-197.304-190.36-197.196-33.865.021-58.257 22.006-58.235 57.113.044 44.228 62.176 88.52 139.337 88.455 18.837-.01 33.887-3.689 41.45-7.4 3.755 5.572 5.654 14.79 5.676 22.147.044 42.485-41.418 68.353-105.362 68.417-95.997.086-188.417-69.999-188.515-180.805-.044-66.244 58.312-114.301 143.014-114.387C684.613 66.573 784.464 212.142 784.596 358c.132 130.876-73.121 206.661-223.775 206.79-301.32.28-448.319-265.259-382.74-534.745z" fill="#4578F8"/></svg>